<?xml version="1.0" encoding="utf-8"?>
<!-- Generator: Adobe Illustrator 23.0.6, SVG Export Plug-In . SVG Version: 6.00 Build 0)  -->
<svg version="1.1" id="Calque_1" xmlns="http://www.w3.org/2000/svg" xmlns:xlink="http://www.w3.org/1999/xlink" x="0px" y="0px"
	 viewBox="0 0 295.98 209.28" style="enable-background:new 0 0 295.98 209.28;" xml:space="preserve">
<style type="text/css">
	.st0{fill:#FF0000;}
</style>
<g>
	<g>
		<g>
			<path class="st0" d="M124.43,65.54l-17-14.92c-0.11-0.1-0.17-0.24-0.17-0.38V23.56c0-1.66-0.72-3.24-1.97-4.34l-16-14.03l0,0.01
				l0-0.01c-2.17-1.9-5.44-1.9-7.61,0l-16,14.03c-1.25,1.1-1.97,2.68-1.97,4.34v26.67c0,0.15-0.06,0.29-0.17,0.38l-17,14.92
				c-1.25,1.1-1.97,2.68-1.97,4.34v26.46c0,1.66,0.72,3.24,1.97,4.34l16,14.03c1.08,0.95,2.45,1.43,3.81,1.43
				c1.36,0,2.72-0.48,3.81-1.43l12.02-10.54l-0.26-0.23c-1.27-1.11-2.21-2.53-2.79-4.09l-12.44,10.91c-0.11,0.1-0.25,0.12-0.34,0.12
				c-0.09,0-0.22-0.02-0.34-0.12L50,96.73c-0.11-0.1-0.17-0.24-0.17-0.38V69.88c0-0.15,0.06-0.29,0.17-0.38l16-14.03
				c0.11-0.1,0.25-0.12,0.34-0.12c0.09,0,0.22,0.02,0.34,0.12l16,14.03c0.11,0.1,0.17,0.24,0.17,0.38v26.46
				c0,1.66,0.72,3.24,1.97,4.34l16,14.03c1.08,0.95,2.45,1.43,3.81,1.43c1.36,0,2.72-0.48,3.8-1.43l16-14.03
				c1.25-1.1,1.96-2.68,1.96-4.34V69.88C126.4,68.22,125.68,66.63,124.43,65.54z M121.13,96.34c0,0.15-0.06,0.29-0.17,0.38
				l-16,14.03c-0.12,0.1-0.25,0.12-0.34,0.12c-0.09,0-0.22-0.02-0.34-0.12l-16-14.03c-0.11-0.1-0.17-0.24-0.17-0.38V69.88
				c0-0.15,0.06-0.29,0.17-0.38l16-14.03c0.12-0.1,0.25-0.12,0.34-0.12c0.09,0,0.22,0.02,0.34,0.12l16,14.03
				c0.11,0.1,0.17,0.24,0.17,0.38V96.34z M11.52,96.34V69.88c0-0.15,0.06-0.29,0.17-0.38l16-14.03c0.12-0.1,0.25-0.12,0.34-0.12
				c0.09,0,0.22,0.02,0.34,0.12l12.44,10.91c0.58-1.57,1.54-3,2.83-4.13l0.22-0.19L31.84,51.51c-1.08-0.95-2.45-1.43-3.81-1.43
				c-1.36,0-2.72,0.48-3.81,1.43l-16,14.03c-1.25,1.1-1.97,2.68-1.97,4.34v26.46c0,1.66,0.72,3.24,1.97,4.34l13.55,11.89
				c0.58-1.59,1.55-3.03,2.85-4.17l0.19-0.17L11.69,96.73C11.58,96.63,11.52,96.49,11.52,96.34z M63.83,120.18v22.33
				c0,0.15-0.06,0.29-0.17,0.38l-16,14.03c-0.12,0.1-0.25,0.12-0.34,0.12c-0.09,0-0.22-0.02-0.34-0.12l-16-14.03
				c-0.11-0.1-0.17-0.24-0.17-0.38v-26.46c0-0.15,0.06-0.29,0.17-0.38l13.05-11.45l-0.26-0.23c-1.27-1.12-2.23-2.52-2.81-4.07
				L27.52,111.7c-1.25,1.1-1.97,2.68-1.97,4.34v26.46c0,1.66,0.72,3.24,1.97,4.34l16,14.03c1.08,0.95,2.45,1.43,3.81,1.43
				c1.36,0,2.72-0.48,3.8-1.43l16-14.03c1.25-1.1,1.96-2.68,1.96-4.34v-22.32c-0.85,0.23-1.73,0.35-2.62,0.35
				C65.57,120.53,64.69,120.4,63.83,120.18z"/>
		</g>
		<g>
			<path class="st0" d="M108.17,157.04c0.49,0,0.9-0.4,0.9-0.9v-29.65c0-0.49-0.4-0.9-0.9-0.9h-5.43c-0.49,0-1.11,0.22-1.24,0.76
				l-5.32,20.32c-0.09,0.31-0.45,0.31-0.54,0l-5.12-20.32c-0.13-0.54-0.45-0.76-0.94-0.76h-5.79c-0.49,0-0.9,0.4-0.9,0.9v29.65
				c0,0.49,0.4,0.9,0.9,0.9h3.32c0.49,0,0.9-0.4,0.9-0.9v-17.46c0-0.27,0.31-0.36,0.41-0.09l5.04,17.68
				c0.13,0.54,0.45,0.76,0.94,0.76h3.06c0.5,0,0.81-0.23,0.94-0.76l5.12-17.68c0.09-0.27,0.4-0.18,0.4,0.09v17.46
				c0,0.49,0.4,0.9,0.9,0.9H108.17z M136.48,147.61v-21.11c0-0.49-0.4-0.9-0.9-0.9h-3.91c-0.49,0-0.9,0.4-0.9,0.9v21.43
				c0,2.11-1.6,3.91-4.66,3.91c-2.88,0-4.6-1.86-4.6-3.96v-21.4c0-0.49-0.4-0.9-0.9-0.9l-3.88,0c-0.5,0-0.9,0.4-0.9,0.9v21.11
				c0,5.44,4.17,9.93,10.28,9.93C132.31,157.54,136.48,153.04,136.48,147.61z M175.21,157.54c6.2,0,10.37-4.49,10.37-9.93v-21.11
				c0-0.49-0.41-0.9-0.9-0.9h-3.91c-0.49,0-0.9,0.4-0.9,0.9v21.43c0,2.11-1.6,3.91-4.66,3.91c-2.88,0-4.6-1.86-4.6-3.96v-21.4
				c0-0.49-0.4-0.9-0.9-0.9l-3.88,0c-0.49,0-0.9,0.4-0.9,0.9v21.11C164.93,153.04,169.1,157.54,175.21,157.54z M160.82,130.34v-3.85
				c0-0.49-0.4-0.9-0.9-0.9H141.5c-0.49,0-0.9,0.4-0.9,0.9v3.85c0,0.49,0.4,0.9,0.9,0.9h5.92c0.27,0,0.45,0.18,0.45,0.45v24.45
				c0,0.49,0.4,0.9,0.9,0.9h3.85c0.49,0,0.9-0.41,0.9-0.9v-24.45c0-0.27,0.18-0.45,0.45-0.45h5.96
				C160.42,131.24,160.82,130.84,160.82,130.34z M267.3,125.59h-18.42c-0.5,0-0.9,0.4-0.9,0.9v3.85c0,0.49,0.4,0.9,0.9,0.9h5.92
				c0.27,0,0.45,0.18,0.45,0.45v24.45c0,0.49,0.4,0.9,0.9,0.9h3.85c0.49,0,0.9-0.41,0.9-0.9v-24.45c0-0.27,0.18-0.45,0.45-0.45h5.96
				c0.5,0,0.9-0.41,0.9-0.9v-3.85C268.2,125.99,267.79,125.59,267.3,125.59z M211.05,157.04c0.72,0,0.99-0.5,0.9-0.9l-7.76-29.87
				c-0.09-0.41-0.45-0.67-0.85-0.67h-5.55c-0.4,0-0.76,0.27-0.85,0.67l-7.87,29.87c-0.09,0.4,0.18,0.9,0.9,0.9h4.06
				c0.4,0,0.76-0.27,0.85-0.67l1.25-5.09c0.09-0.4,0.27-0.67,0.67-0.67h7.27c0.4,0,0.58,0.31,0.67,0.67l1.46,5.09
				c0.13,0.4,0.45,0.67,0.85,0.67H211.05z M202.76,145.09h-4.52c-0.27,0-0.45-0.13-0.36-0.49c0,0,2.29-11.33,2.31-11.47
				c0.03-0.14,0.09-0.18,0.22-0.18h0.15c0.13,0,0.18,0.04,0.22,0.18l2.32,11.47C203.21,144.96,203.03,145.09,202.76,145.09z
				 M232.34,151.39h-9.44c-0.27,0-0.45-0.18-0.45-0.45v-24.45c0-0.49-0.4-0.9-0.9-0.9h-3.85c-0.49,0-0.9,0.4-0.9,0.9v29.65
				c0,0.49,0.4,0.9,0.9,0.9h14.63c0.49,0,0.9-0.41,0.9-0.9v-3.85C233.24,151.79,232.83,151.39,232.34,151.39z M242.8,125.59h-3.85
				c-0.49,0-0.9,0.4-0.9,0.9v29.65c0,0.49,0.4,0.9,0.9,0.9h3.85c0.49,0,0.9-0.41,0.9-0.9v-29.65
				C243.7,125.99,243.29,125.59,242.8,125.59z M239.14,167.29h-3.85c-0.49,0-0.9,0.4-0.9,0.9v29.65c0,0.49,0.4,0.9,0.9,0.9h3.85
				c0.49,0,0.9-0.4,0.9-0.9v-29.65C240.04,167.7,239.63,167.29,239.14,167.29z M288.82,151.39h-10.5c-0.27,0-0.45-0.18-0.45-0.45
				v-6.38c0-0.27,0.18-0.45,0.45-0.45h10.13c0.49,0,0.9-0.41,0.9-0.9v-3.85c0-0.49-0.41-0.9-0.9-0.9h-10.13
				c-0.27,0-0.45-0.18-0.45-0.45v-6.33c0-0.27,0.18-0.45,0.45-0.45h10.49c0.49,0,0.9-0.4,0.9-0.9v-3.85c0-0.49-0.41-0.9-0.9-0.9
				h-15.67c-0.49,0-0.9,0.41-0.9,0.9v29.65c0,0.49,0.4,0.9,0.9,0.9h15.67c0.5,0,0.9-0.41,0.9-0.9v-3.85
				C289.72,151.79,289.32,151.39,288.82,151.39z M288.82,193.09h-10.5c-0.27,0-0.45-0.18-0.45-0.45v-6.38
				c0-0.27,0.18-0.45,0.45-0.45h10.13c0.49,0,0.9-0.41,0.9-0.9v-3.85c0-0.49-0.41-0.9-0.9-0.9h-10.13c-0.27,0-0.45-0.18-0.45-0.45
				v-6.33c0-0.27,0.18-0.45,0.45-0.45h10.49c0.49,0,0.9-0.4,0.9-0.9v-3.85c0-0.49-0.41-0.9-0.9-0.9h-15.67c-0.49,0-0.9,0.4-0.9,0.9
				v29.65c0,0.49,0.4,0.9,0.9,0.9h15.67c0.5,0,0.9-0.4,0.9-0.9v-3.85C289.72,193.49,289.32,193.09,288.82,193.09z M98.87,167.29
				H83.79c-0.49,0-0.9,0.4-0.9,0.9v29.65c0,0.49,0.4,0.9,0.9,0.9h3.87c0.49,0,0.9-0.4,0.9-0.9v-11.51c0-0.27,0.18-0.45,0.45-0.45
				h9.42c0.49,0,0.9-0.4,0.9-0.9v-3.88c0-0.49-0.41-0.9-0.9-0.9h-9.42c-0.27,0-0.45-0.18-0.45-0.45v-6.33
				c0-0.27,0.18-0.45,0.45-0.45h9.87c0.5,0,0.9-0.4,0.9-0.9v-3.88C99.77,167.7,99.37,167.29,98.87,167.29z M119.63,184.57
				c3.19-2.16,4.73-4.54,4.73-8c0-5.01-3.95-9.27-9.11-9.27h-9.56c-0.49,0-0.9,0.4-0.9,0.9v29.65c0,0.49,0.4,0.9,0.9,0.9h3.84
				c0.49,0,0.9-0.4,0.9-0.9v-11.53c0-0.27,0.18-0.45,0.45-0.45h1.74c0.49,0,0.72,0.36,0.81,0.58l4.58,11.4
				c0.22,0.54,0.58,0.9,1.3,0.9h3.92c0.9,0,1.17-0.67,0.85-1.35l-4.71-11.34C119.05,185.38,119,185.02,119.63,184.57z M115.4,180.26
				c-1.83,0-4.5,0-4.5,0c-0.27,0-0.45-0.18-0.45-0.45l-0.03-6.49c0-0.27,0.18-0.45,0.45-0.45c0,0,2.67,0,4.5,0
				c1.83,0,3.34,1.88,3.34,3.69C118.72,178.38,117.22,180.26,115.4,180.26z M278.84,124.53c0.01,0,0.26,0,0.26,0l1.96,0.02
				c0.36,0,0.47,0.02,0.79-0.33c0.27-0.3,3.91-4.61,3.91-4.61c0.45-0.5,0.36-1.06-0.3-1.07h-0.53l-2-0.02
				c-0.96,0-1.43,0.63-1.59,0.87c0,0-2.85,3.9-3.16,4.31C277.88,124.11,278.12,124.53,278.84,124.53z M193.78,200.25l-2.5-0.02
				c-0.96,0-1.28,0.5-1.59,0.87s-3.22,4.21-3.22,4.21c-0.36,0.54-0.09,0.93,0.45,0.93c0.01,0,2.38,0.02,2.38,0.02
				c0.36,0,0.56-0.04,0.96-0.5c0.65-0.75,3.61-4.11,4.02-4.58C194.68,200.71,194.44,200.26,193.78,200.25z M193.22,172.52
				c2.83,0,4.39,2.36,4.39,4.21c0,0.79,0.29,0.94,0.9,0.94h3.89c0.49,0,0.9-0.45,0.9-0.9v-0.05c0-5.11-3.87-9.93-10.08-9.93
				c-6.23,0-9.99,4.52-10.67,9.91c-0.3,2.43-0.3,6.31-0.3,6.31s0,3.89,0.3,6.31c0.68,5.39,4.44,9.91,10.67,9.91
				c6.2,0,10.08-4.82,10.08-9.93v-0.05c0-0.45-0.4-0.9-0.9-0.9h-3.89c-0.61,0-0.9,0.16-0.9,0.94c0,1.85-1.56,4.21-4.39,4.21
				c-2.74,0-4.52-1.83-4.95-4.28c-0.37-2.07-0.41-3.64-0.41-6.21c0-2.57,0.05-4.14,0.41-6.21
				C188.7,174.36,190.48,172.52,193.22,172.52z M175.2,167.29h-3.52c-0.49,0-0.9,0.4-0.9,0.9v18.73c0,0.27-0.31,0.36-0.4,0.09
				l-7.02-18.91c-0.13-0.4-0.45-0.81-1.12-0.81h-4.82c-0.49,0-0.9,0.4-0.9,0.9v29.65c0,0.49,0.4,0.9,0.9,0.9h3.53
				c0.49,0,0.9-0.4,0.9-0.9v-17.21c0-0.27,0.31-0.36,0.4-0.09l6.97,17.43c0.13,0.36,0.45,0.76,1.21,0.76h4.76
				c0.49,0,0.9-0.4,0.9-0.9v-29.65C176.1,167.7,175.69,167.29,175.2,167.29z M256.12,179.65c-2.32-0.58-4.31-1.74-4.31-3.76
				c0-1.8,1.16-3.6,4.22-3.6c2.56,0,4.3,1.57,4.3,3.37v1.02c0,0.5,0.4,0.9,0.9,0.9h3.89c0.49,0,0.9-0.4,0.9-0.9v-1.02
				c0-4.59-3.96-8.85-9.98-8.85c-5.72,0-9.94,4.01-9.94,9.32c0,5.57,4.1,8.12,9.72,9.38c3.37,0.76,5.01,1.87,5.01,4.07
				c0,2.11-1.83,4.16-4.78,4.16c-2.62,0-4.67-1.6-4.67-3.67v-1.65c0-0.49-0.4-0.9-0.9-0.9h-3.9c-0.49,0-0.9,0.4-0.9,0.9v1.65
				c0,4.93,4.39,9.18,10.37,9.18c6.38,0,10.64-4.18,10.64-9.67C266.68,183.35,262.42,181.21,256.12,179.65z M143.66,167.97
				c-0.09-0.4-0.45-0.67-0.85-0.67h-5.55c-0.4,0-0.76,0.27-0.85,0.67l-7.87,29.87c-0.09,0.4,0.18,0.9,0.9,0.9h4.06
				c0.4,0,0.76-0.27,0.85-0.67l1.25-5.09c0.09-0.4,0.27-0.67,0.67-0.67h7.27c0.4,0,0.58,0.31,0.67,0.67l1.46,5.09
				c0.13,0.4,0.45,0.67,0.85,0.67h4c0.72,0,0.99-0.49,0.9-0.9L143.66,167.97z M142.23,186.79h-4.52c-0.27,0-0.45-0.13-0.36-0.49
				c0,0,2.29-11.33,2.31-11.47c0.03-0.14,0.09-0.18,0.22-0.18h0.15c0.13,0,0.18,0.04,0.22,0.18l2.32,11.47
				C142.68,186.66,142.5,186.79,142.23,186.79z M221.81,167.97c-0.09-0.4-0.45-0.67-0.85-0.67h-5.55c-0.4,0-0.76,0.27-0.85,0.67
				l-7.87,29.87c-0.09,0.4,0.18,0.9,0.9,0.9h4.06c0.4,0,0.76-0.27,0.85-0.67l1.25-5.09c0.09-0.4,0.27-0.67,0.67-0.67h7.27
				c0.4,0,0.58,0.31,0.67,0.67l1.46,5.09c0.13,0.4,0.45,0.67,0.85,0.67h4c0.72,0,0.99-0.49,0.9-0.9L221.81,167.97z M220.38,186.79
				h-4.52c-0.27,0-0.45-0.13-0.36-0.49c0,0,2.29-11.33,2.31-11.47c0.03-0.14,0.09-0.18,0.22-0.18h0.15c0.13,0,0.18,0.04,0.22,0.18
				l2.32,11.47C220.83,186.66,220.65,186.79,220.38,186.79z"/>
		</g>
	</g>
</g>
</svg>
