<?xml version="1.0" encoding="UTF-8" standalone="no"?>
<!-- Created with Inkscape (http://www.inkscape.org/) -->

<svg
   xmlns:dc="http://purl.org/dc/elements/1.1/"
   xmlns:cc="http://creativecommons.org/ns#"
   xmlns:rdf="http://www.w3.org/1999/02/22-rdf-syntax-ns#"
   xmlns:svg="http://www.w3.org/2000/svg"
   xmlns="http://www.w3.org/2000/svg"
   xmlns:xlink="http://www.w3.org/1999/xlink"
   xmlns:sodipodi="http://sodipodi.sourceforge.net/DTD/sodipodi-0.dtd"
   xmlns:inkscape="http://www.inkscape.org/namespaces/inkscape"
   id="svg2"
   version="1.1"
   inkscape:version="0.91 r13725"
   xml:space="preserve"
   width="600"
   height="590"
   viewBox="0 0 600 589.99997"
   sodipodi:docname="Logo Sharks Antibes Basket.svg"><metadata
     id="metadata8"><rdf:RDF><cc:Work
         rdf:about=""><dc:format>image/svg+xml</dc:format><dc:type
           rdf:resource="http://purl.org/dc/dcmitype/StillImage" /><dc:title></dc:title></cc:Work></rdf:RDF></metadata><defs
     id="defs6"><linearGradient
       x1="0"
       y1="0"
       x2="1"
       y2="0"
       gradientUnits="userSpaceOnUse"
       gradientTransform="matrix(123.35203,0,0,123.35203,411.7377,672.12664)"
       spreadMethod="pad"
       id="linearGradient2174"><stop
         style="stop-opacity:1;stop-color:#469cdb"
         offset="0"
         id="stop2176" /><stop
         style="stop-opacity:1;stop-color:#244584"
         offset="1"
         id="stop2178" /></linearGradient><linearGradient
       inkscape:collect="always"
       xlink:href="#linearGradient2174"
       id="linearGradient15683"
       gradientUnits="userSpaceOnUse"
       gradientTransform="matrix(350.82909,0,0,350.75246,50.19923,179.00834)"
       spreadMethod="pad"
       x1="0"
       y1="0"
       x2="1"
       y2="0" /></defs><sodipodi:namedview
     pagecolor="#ffffff"
     bordercolor="#666666"
     borderopacity="1"
     objecttolerance="10"
     gridtolerance="10"
     guidetolerance="10"
     inkscape:pageopacity="0"
     inkscape:pageshadow="2"
     inkscape:window-width="1440"
     inkscape:window-height="788"
     id="namedview4"
     showgrid="false"
     inkscape:zoom="0.77676418"
     inkscape:cx="404.7638"
     inkscape:cy="321.89326"
     inkscape:window-x="0"
     inkscape:window-y="1"
     inkscape:window-maximized="1"
     inkscape:current-layer="g10"
     showguides="false" /><g
     id="g10"
     inkscape:groupmode="layer"
     inkscape:label="Logo"
     transform="matrix(1.25,0,0,-1.25,0,589.99995)"><g
       id="g15878"
       transform="matrix(0.99667778,0,0,0.99251244,1.5946844,-0.43559651)"><path
         sodipodi:nodetypes="ccccccccc"
         style="fill:#1e2046;fill-opacity:1;stroke:none"
         d="M 227.58,348.98291 C 168.72353,348.65566 98.403481,339.08576 25.524148,313.49642 25.192502,276.28666 29.862961,238.34364 38.973946,201.67704 53.37633,155.89672 72.614621,107.5104 128.7429,61.432405 155.30459,38.67542 190.59886,18.137286 227.58018,0.43884237 264.56151,18.137286 299.85577,38.67542 326.41747,61.432405 c 56.12826,46.077995 75.36837,94.464315 89.77075,140.244635 9.11099,36.6666 13.77963,74.60962 13.44799,111.81938 -72.87935,25.58934 -143.19973,35.15924 -202.05621,35.48649 z"
         id="path15727"
         inkscape:connector-curvature="0" /><g
         id="g15873"><path
           style="fill:#ffffff;fill-opacity:1;stroke:none"
           d="M 228.09515,348.25465 C 172.93654,347.93117 107.03441,338.47154 38.733986,313.17706 38.423175,276.39605 42.800197,238.89023 51.338753,202.64613 64.836257,157.39332 82.865834,109.56453 135.46766,64.017482 160.36052,41.522718 193.4373,21.221237 228.09515,3.7267264 c 34.65784,17.4945106 67.73461,37.7959916 92.62748,60.2907556 52.60181,45.547048 70.63309,93.375838 84.1306,138.628648 8.53854,36.2441 12.91388,73.74992 12.60305,110.53093 -68.30043,25.29448 -134.20252,34.75411 -189.36113,35.07759 z"
           id="path15735"
           inkscape:connector-curvature="0" /><path
           inkscape:connector-curvature="0"
           id="path15725"
           d="m 228.09514,348.25465 c -52.38382,-0.32348 -114.9707,-9.78311 -179.835234,-35.07759 -0.295175,-36.78101 3.861658,-74.28683 11.970677,-110.53093 12.818505,-45.25281 29.941093,-93.0816 79.896757,-138.628648 23.64061,-22.494764 55.05344,-42.796245 87.9678,-60.2907556 32.91437,17.4945106 64.32719,37.7959916 87.96781,60.2907556 49.95564,45.547048 67.07985,93.375838 79.89836,138.628648 8.10901,36.2441 12.26424,73.74992 11.96905,110.53093 -64.86454,25.29448 -127.45139,34.75411 -179.83522,35.07759 z"
           style="fill:#eeaa18;fill-opacity:1;stroke:none" /><path
           style="fill:url(#linearGradient15683);stroke:none"
           d="M 227.58018,348.25465 C 176.99622,347.93697 116.55978,338.64701 53.923926,313.80621 53.638894,277.68491 57.652902,240.8518 65.483302,205.25778 77.861374,160.81662 94.395646,113.8457 142.63487,69.115584 165.46321,47.024288 195.79674,27.086936 227.58018,9.906208 c 31.78346,17.180728 62.11697,37.11808 84.94532,59.209376 48.23921,44.730116 64.77504,91.701036 77.15312,136.142196 7.8304,35.59402 11.84285,72.42713 11.55781,108.54843 -62.63585,24.8408 -123.07228,34.13076 -173.65625,34.44844 z"
           id="path15681"
           inkscape:connector-curvature="0" /></g><path
         transform="matrix(0.8,0,0,-0.8,0,475.99996)"
         id="path2192"
         d="M 269.45117,0.01757813 C 256.23761,0.15403242 247.10138,1.0990625 229.86328,2.4746094 206.25702,4.3584344 182.85086,7.5854968 159.625,12.138672 126.01806,18.728497 93.250859,28.179909 61.595703,41.341797 c -2.54905,1.0592 -4.604114,2.516991 -6.271484,4.720703 -2.929453,3.874288 -5.95834,7.673056 -9.03711,11.433594 -1.532275,1.86605 -2.442828,3.854153 -2.912109,6.267578 -2.698368,13.830112 -5.611433,27.62036 -8.341797,41.443358 -0.526164,2.6729 -1.723729,4.37152 -4.226562,5.6582 -10.459284,5.38489 -20.528083,11.46019 -30.22656288,18.1211 C -0.38692574,129.64744 -1.758249,129.98739 -2,131.35938 c 0.2453061,0.9739 1.04206266,1.25264 1.68554688,1.65429 6.24286312,3.90626 12.49166412,7.80931 18.75585912,11.6836 7.632931,4.72377 7.587777,4.69828 5.806641,13.48828 -2.925898,14.42368 -5.78458,28.8609 -8.646485,43.29883 -0.810577,4.09819 -0.747313,4.20467 2.839844,6.39062 4.547052,2.77597 9.04852,5.64503 13.712891,8.21484 2.769471,1.52484 3.913559,3.35423 3.888672,6.65625 l 22.195312,-8.02343 10.652344,-3.81446 c 16.332411,-6.17752 33.051355,-11.13967 49.789065,-16.0625 2.7588,-0.8104 4.47648,0.26304 5.95898,2.32813 4.90969,3.31625 7.90336,8.40159 11.71094,12.73437 3.19965,3.64325 6.27101,7.41868 9.19336,11.29297 1.55716,2.05799 3.08556,2.49404 5.61328,1.82227 10.89301,-2.90749 21.90645,-5.33032 33.02344,-7.20703 13.42429,-2.2677 26.91578,-4.01731 40.46093,-5.47461 15.64817,-1.6829 44.15218,-2.48019 59.83399,-2.72852 15.68181,0.24834 44.18582,1.04562 59.83398,2.72852 13.54515,1.4573 27.03664,3.20691 40.46094,5.47461 11.11699,1.87671 22.13043,4.29954 33.02344,7.20703 2.52772,0.67177 4.05613,0.23572 5.61328,-1.82227 2.92235,-3.8743 5.99371,-7.64972 9.19336,-11.29297 3.80757,-4.33277 6.80125,-9.41812 11.71094,-12.73437 1.4825,-2.06509 3.20018,-3.13853 5.95898,-2.32813 16.73771,4.92283 33.45666,9.88498 49.78906,16.0625 l 10.65235,3.81446 22.19531,8.02343 c -0.0249,-3.30201 1.1192,-5.13141 3.88867,-6.65625 4.66438,-2.56981 9.16584,-5.43886 13.71289,-8.21484 3.58716,-2.18595 3.65042,-2.29242 2.83985,-6.39062 -2.8619,-14.43792 -5.72059,-28.87516 -8.64649,-43.29883 -1.78114,-8.79 -1.82628,-8.76452 5.80664,-13.48828 6.2642,-3.8743 12.513,-7.77735 18.75586,-11.6836 0.64349,-0.40165 1.44024,-0.68038 1.68555,-1.65429 -0.24175,-1.37199 -1.61308,-1.71194 -2.58008,-2.37305 -9.69849,-6.6609 -19.76729,-12.7362 -30.22656,-18.1211 -2.50284,-1.28667 -3.7004,-2.9853 -4.22656,-5.6582 -2.73038,-13.822999 -5.64344,-27.613246 -8.3418,-41.443358 -0.46929,-2.413425 -1.37984,-4.401528 -2.91211,-6.267578 -3.07878,-3.76055 -6.10765,-7.559307 -9.03711,-11.433594 -1.66736,-2.203713 -3.72243,-3.661503 -6.27148,-4.720703 C 475.69835,28.179909 442.93116,18.728497 409.32422,12.138672 386.09836,7.5854969 362.6922,4.3584344 339.08594,2.4746094 321.84784,1.0990594 312.71161,0.15404062 299.49805,0.01757813 295.09353,-0.02790938 290.23663,0.0156625 284.47461,0.1640625 278.71258,0.01566562 273.85569,-0.02790664 269.45117,0.01757813 Z"
         style="fill:#1e2046;fill-opacity:1;fill-rule:evenodd;stroke:none"
         inkscape:connector-curvature="0" /><g
         id="g15851"><path
           style="fill:#ffffff;fill-opacity:1;fill-rule:nonzero;stroke:none"
           d="m 477.17887,135.32285 c -35.45491,41.00623 -114.51032,58.3829 -175.64772,65.73337 -5.80771,8.91724 -5.94992,15.47153 -5.96129,15.92933 0.0597,3.01981 -1.97383,5.72114 -4.872,6.44339 -0.0171,0.006 -0.0398,0.009 -0.0569,0.0171 2.37201,3.28994 5.30146,6.84148 6.64104,8.39403 1.12343,1.31371 1.68657,2.98569 1.57281,4.71454 -1.65813,25.33565 7.24399,65.91535 7.33216,66.31345 0.62286,2.76673 -0.57736,5.59886 -2.97211,7.03199 -0.98976,0.59714 -2.12172,0.91277 -3.28213,0.91277 -1.56711,0 -3.08303,-0.58577 -4.24344,-1.63502 -27.224,-24.45417 -39.23476,-61.07286 -43.34453,-76.75196 -9.41975,-1.0521 -18.44417,-2.27765 -26.89977,-3.6596 -46.16021,73.36819 -79.91433,80.31488 -81.27667,80.5708 l -0.65415,0.11658 -0.56598,0 c -1.82309,0 -3.56654,-0.78765 -4.78098,-2.18097 -1.46757,-1.67198 -1.98521,-4.05769 -1.34243,-6.21875 13.53236,-45.28855 6.93683,-92.71257 6.86572,-93.1846 -0.25597,-1.74591 0.21331,-3.55154 1.27702,-4.9477 -18.51813,-11.24607 -28.86507,-24.87501 -30.82183,-40.61667 -2.1075,-16.97289 6.02671,-30.92599 13.79972,-40.05933 C 84.68336,102.8614 34.794493,88.237244 34.296771,88.097912 c -2.852662,-0.833148 -4.763917,-3.52595 -4.638775,-6.528694 0.119454,-3.011275 2.241174,-5.533466 5.147874,-6.116385 16.333832,-3.309844 34.115327,-4.990357 52.855293,-4.990357 49.948597,0 94.442147,11.905768 109.291347,16.355857 30.17621,-8.911553 100.61106,-28.329868 141.49826,-28.329868 5.32137,0 10.09666,0.329847 14.18652,0.975323 28.76267,4.543926 42.62496,17.416485 49.29728,28.474887 59.90589,5.37423 75.74485,33.263355 76.399,34.469005 2.55971,4.71738 2.16722,9.05088 -1.15472,12.91521"
           id="path2320"
           inkscape:connector-curvature="0" /><path
           style="fill:#1e2046;fill-opacity:1;fill-rule:nonzero;stroke:none"
           d="m 472.36831,131.02973 c -35.09939,40.58254 -116.35332,57.14882 -174.42759,63.90215 -9.11827,12.46878 -8.76845,22.17651 -8.76845,22.17651 -3.93343,0.97817 -7.28665,4.52118 -7.28665,4.52118 2.54265,5.17803 10.57162,14.50189 10.57162,14.50189 -1.7406,26.61523 7.47437,68.1731 7.47437,68.1731 -28.72001,-25.81621 -39.68697,-65.77318 -42.45431,-77.8524 -12.82702,-1.35067 -24.51639,-2.96293 -35.18188,-4.82259 -46.33939,75.22784 -79.33982,81.31579 -79.33982,81.31579 14.19505,-47.50932 7.07335,-96.0281 7.07335,-96.0281 4.49088,-0.31563 8.52386,-1.20564 12.0392,-2.36011 -27.58805,-12.47162 -39.62156,-27.3972 -41.56695,-43.07346 -2.65641,-21.37749 13.44136,-37.42056 21.4163,-43.94356 -6.95959,-1.45019 -11.08642,-1.11182 -11.08642,-1.11182 C 86.482577,96.523759 36.059014,81.834198 36.059014,81.834198 105.66054,67.721869 179.61643,88.274743 196.93717,93.60632 230.70267,83.560207 315.27285,60.141077 351.66063,65.904867 c 29.71546,4.691788 41.64658,18.826865 46.36215,28.244563 58.07711,4.242514 73.79377,29.75162 74.6982,31.40654 1.67235,3.07099 0.60011,4.36194 -0.35267,5.47376"
           id="path2300"
           inkscape:connector-curvature="0" /><path
           inkscape:connector-curvature="0"
           id="path2304"
           style="fill:#ee9f00;fill-opacity:1;fill-rule:nonzero;stroke:none"
           d="m 328.03843,129.84483 c 2.62513,-4.00366 8.44422,-11.63848 15.07673,-12.46025 0,0 4.13821,-0.40662 10.24171,4.69747 -9.12397,2.07008 -17.56534,4.74866 -25.31844,7.76278" /><path
           inkscape:connector-curvature="0"
           id="path2308"
           style="fill:#ffffff;fill-opacity:1;fill-rule:nonzero;stroke:none"
           d="m 291.792,105.36593 c -1.00967,0.24454 -1.99942,0.52605 -2.98065,0.79903 5.2588,-3.73069 14.7525,-7.657571 27.82696,-12.289645 -1.20875,-2.425512 -3.14845,-4.404594 -4.99145,-5.894592 5.65413,-0.32416 10.44933,1.054942 14.34579,3.042554 0.0512,-0.0199 0.11092,-0.03981 0.17065,-0.03981 -1.51592,-2.331677 -3.51819,-4.268106 -5.45788,-5.766634 6.92261,-0.537423 12.84408,1.03788 17.66772,3.363869 0.0683,-0.0199 0.13652,-0.03128 0.21616,-0.03981 -1.28555,-2.465321 -3.10579,-4.615013 -4.89759,-6.286995 7.15014,0.156393 13.03464,2.425512 17.6791,5.342951 l 0.0341,0 c -0.99544,-2.428356 -2.51136,-4.566674 -4.03297,-6.304057 6.57278,0.781965 11.79176,3.366713 15.87024,6.454763 -0.8504,-2.203719 -2.2042,-4.154365 -3.57792,-5.718295 10.15354,1.199961 17.81563,6.983656 21.25418,11.513364 -23.58067,0.02275 -52.86667,3.284251 -89.12647,11.823307" /><g
           id="g15847"><path
             d="m 262.3692,221.93581 c 12.24966,49.75286 29.54766,66.79684 29.54766,66.79684 -6.9027,-29.71181 -6.57847,-46.49988 -6.15185,-52.12718 -5.71386,-6.05383 -10.81338,-15.86109 -10.81338,-15.86109 1.8174,-3.634 8.32476,-7.7969 8.32476,-7.7969 3.83673,-9.35798 6.82022,-14.62132 8.56936,-17.33971 -4.51932,0.50046 -8.87084,0.91845 -13.02042,1.29948 -5.83046,4.39038 -9.11828,9.71627 -10.57163,12.5484 1.11775,2.3004 3.01478,4.77425 3.01478,4.77425 -13.98458,-2.85772 -29.80078,-10.60344 -36.4532,-14.08673 -3.17121,5.74104 -6.29975,11.18351 -9.37141,16.3132 11.03807,2.0786 23.28204,3.9212 36.92533,5.47944"
             style="fill:#3dc0ea;fill-opacity:1;fill-rule:nonzero;stroke:none"
             id="path2296"
             inkscape:connector-curvature="0" /><path
             sodipodi:nodetypes="cccccccccccccccccccccccccccc"
             d="m 285.59436,153.30861 c 8.66322,-6.46898 20.79343,-14.21185 36.02658,-20.84007 -32.18416,-9.69352 -67.45705,-7.51255 -67.45705,-7.51255 -1.13481,-6.88413 3.82535,-34.497433 27.50557,-42.152156 -47.35475,3.284252 -42.8013,52.721476 -42.8013,52.721476 0,0 -8.24797,-23.93949 1.74914,-39.092543 -13.08868,10.847983 -12.24113,41.589143 -12.24113,41.589143 0,0 -9.04148,-24.08167 0.92719,-39.490634 -12.94932,11.081154 -11.4078,41.950274 -11.4078,41.950274 0,0 -10.56025,-26.27686 1.5984,-41.759759 -15.20472,9.713419 -12.07049,44.222229 -12.07049,44.222229 0,0 -11.75194,-26.09487 0.0825,-42.04126 l -0.23321,-0.0284 c -8.90497,9.14756 -25.88158,13.97868 -25.88158,13.97868 2.90955,-2.5819 5.2076,-7.7969 5.2076,-7.7969 C 136.00171,84.563965 85.910907,84.944995 72.042934,85.570567 c 14.021556,4.037781 38.156836,11.766435 62.806896,23.171743 0,0 23.91629,3.69656 31.55846,18.51408 -4.09839,-2.36864 -7.95503,-4.22261 -11.51588,-5.67564 -6.32534,4.76003 -28.20523,22.49499 -26.06644,38.37029 1.51876,11.31148 10.2474,27.29484 41.80016,40.87259 5.27586,-2.92029 8.13421,-5.75242 8.13421,-5.75242 -12.13305,15.88952 -20.45782,17.41364 -20.45782,17.41364 4.57905,37.07081 -6.91692,80.99732 -6.91692,80.99732 45.47762,-35.38177 73.61459,-94.89354 73.61459,-94.89354 C 223.4473,197.23512 221.92,195.4494 221.92,195.4494 398.17067,185.15874 457.65279,130.6686 457.65279,130.6686 378.81353,124.7541 314.1096,143.21984 285.59436,153.30861"
             style="fill:#3dc0ea;fill-opacity:1;fill-rule:nonzero;stroke:none"
             id="path2312"
             inkscape:connector-curvature="0" /></g><path
           inkscape:connector-curvature="0"
           id="path2316"
           style="fill:#ffffff;fill-opacity:1;fill-rule:nonzero;stroke:none"
           d="m 268.08789,197.79529 c -5.85322,0.44074 -11.13761,0.77343 -15.72519,1.02935 l 9.64729,6.01402 c 2.09328,-3.03971 4.16096,-5.30883 6.0779,-7.04337" /></g><g
         id="g15798"><g
           id="g15770"><path
             d="m 137.82763,317.48649 5.95561,-0.22464 c -0.0341,-1.42175 -0.33846,-2.66721 -0.91866,-3.73637 -0.57736,-1.07484 -1.40784,-1.97055 -2.48861,-2.68427 -1.08077,-0.71941 -2.54265,-1.27958 -4.39134,-1.68051 -2.24401,-0.48624 -4.14674,-0.60567 -5.71101,-0.36113 -1.56427,0.24739 -3.04037,0.95827 -4.43115,2.13548 -1.38793,1.17721 -2.36347,2.85772 -2.92092,5.04438 -0.74232,2.91175 -0.40671,5.34864 1.01251,7.30782 1.41638,1.95917 3.78554,3.30131 7.11032,4.02072 2.59954,0.5687 4.75823,0.56301 6.47324,-0.0114 1.71501,-0.57439 3.17405,-1.71179 4.36858,-3.41221 l -5.35834,-2.29471 c -0.33276,0.49762 -0.63993,0.84168 -0.91865,1.04357 -0.46359,0.34122 -0.98407,0.56301 -1.55574,0.67675 -0.57451,0.11374 -1.17747,0.0995 -1.81455,-0.037 -1.44767,-0.31563 -2.42889,-1.05494 -2.94652,-2.21225 -0.39249,-0.86158 -0.38965,-2.08145 0.0114,-3.6596 0.49772,-1.95064 1.186,-3.21316 2.06768,-3.7847 0.87599,-0.57155 1.94538,-0.72226 3.20533,-0.44928 1.22013,0.26445 2.06768,0.75637 2.53981,1.47863 0.47497,0.7194 0.71387,1.66913 0.71103,2.84066"
             style="fill:#ee9f00;fill-opacity:1;fill-rule:nonzero;stroke:none"
             id="path2252"
             inkscape:connector-curvature="0" /><path
             d="m 151.91631,321.39745 c 0.31285,-1.74307 0.91865,-2.9345 1.81455,-3.57713 0.89875,-0.64548 1.99943,-0.86727 3.30488,-0.66823 1.33959,0.21042 2.31228,0.745 2.91239,1.6009 0.60296,0.85874 0.7281,2.2549 0.37827,4.1828 -0.29295,1.62364 -0.89021,2.75251 -1.79465,3.38377 -0.90443,0.62842 -2.01364,0.84168 -3.32763,0.63979 -1.25995,-0.19336 -2.20135,-0.73078 -2.82706,-1.60942 -0.62287,-0.87865 -0.77929,-2.19519 -0.46075,-3.95248 m -0.0768,13.42704 3.98462,0.6142 3.67177,-2.89185 -3.41864,-0.52889 -2.0108,1.54118 -1.3538,-2.06154 -3.42149,-0.52605 2.54834,3.85295 z m -6.17745,-14.3654 c -0.5091,2.81508 0.0142,5.1496 1.56996,7.00072 1.55574,1.85397 3.97325,3.03402 7.25537,3.53732 3.36461,0.52036 6.09782,0.14786 8.19394,-1.11181 2.10181,-1.25967 3.40158,-3.27856 3.90499,-6.05667 0.36405,-2.01605 0.2645,-3.73068 -0.29579,-5.14391 -0.5603,-1.41322 -1.53014,-2.59328 -2.90386,-3.54585 -1.37087,-0.94973 -3.18258,-1.59521 -5.42375,-1.94212 -2.28099,-0.34975 -4.22353,-0.32984 -5.83047,0.0569 -1.60408,0.39241 -2.99202,1.1829 -4.1638,2.38286 -1.17178,1.19712 -1.9397,2.8037 -2.30659,4.82259"
             style="fill:#ee9f00;fill-opacity:1;fill-rule:nonzero;stroke:none"
             id="path2256"
             inkscape:connector-curvature="0" /><path
             d="m 167.8531,332.03445 18.47262,1.90231 0.50341,-4.14299 -6.2002,-0.63979 1.52729,-12.63655 -6.0779,-0.62557 -1.5273,12.63939 -6.19735,-0.63979 -0.50057,4.14299 z"
             style="fill:#ee9f00;fill-opacity:1;fill-rule:nonzero;stroke:none"
             id="path2260"
             inkscape:connector-curvature="0" /><path
             d="m 189.71223,334.18357 16.35374,0.98954 0.25597,-3.59704 -10.24171,-0.61988 0.19056,-2.67859 9.49655,0.57439 0.24459,-3.4378 -9.4937,-0.57439 0.23606,-3.32121 10.53181,0.63694 0.2702,-3.81599 -16.64954,-1.0066 -1.19453,16.85063 z"
             style="fill:#ee9f00;fill-opacity:1;fill-rule:nonzero;stroke:none"
             id="path2264"
             inkscape:connector-curvature="0" /><path
             d="m 225.87817,331.76403 0.0427,-9.22718 1.49601,0.006 c 1.27986,0.006 2.18714,0.12796 2.72752,0.37535 0.54039,0.24454 0.96132,0.66538 1.2628,1.27105 0.30432,0.60566 0.45221,1.58099 0.44653,2.93165 -0.009,1.79141 -0.35552,3.01412 -1.0438,3.67381 -0.68828,0.65685 -1.82309,0.98101 -3.40727,0.97533 l -1.52445,-0.006 z m -6.13194,3.79893 9.08415,0.037 c 1.78895,0.006 3.23661,-0.19336 4.34014,-0.60567 1.10636,-0.40946 2.01933,-1.00091 2.74174,-1.77434 0.72525,-0.77344 1.25141,-1.67483 1.58133,-2.70134 0.32708,-1.0265 0.49488,-2.11557 0.50057,-3.27003 0.009,-1.80278 -0.22753,-3.20463 -0.7025,-4.19986 -0.47781,-0.99807 -1.14334,-1.83406 -1.99373,-2.50798 -0.8504,-0.67675 -1.76621,-1.12887 -2.74459,-1.35066 -1.34243,-0.31279 -2.55687,-0.47487 -3.64617,-0.47771 l -9.08415,-0.0341 -0.0768,16.88475 z"
             style="fill:#ee9f00;fill-opacity:1;fill-rule:nonzero;stroke:none"
             id="path2268"
             inkscape:connector-curvature="0" /><path
             d="m 240.58033,335.76427 5.87028,-0.16208 -0.12798,-3.85864 c -0.0455,-1.42175 -0.42662,-2.53072 -1.14903,-3.33828 -0.71957,-0.80471 -1.92263,-1.49568 -3.61773,-2.07292 l -1.21445,2.08714 c 1.05802,0.38672 1.78896,0.77628 2.19283,1.17721 0.40386,0.39809 0.63708,0.87865 0.7025,1.43882 l -2.80716,0.0796 0.15074,4.64914 z"
             style="fill:#ee9f00;fill-opacity:1;fill-rule:nonzero;stroke:none"
             id="path2272"
             inkscape:connector-curvature="0" /><path
             d="m 259.94856,324.20684 -1.77474,6.18179 -2.56256,-5.93156 4.3373,-0.25023 z m 1.02389,-3.71646 -6.93399,0.39524 -1.14903,-2.72408 -6.23148,0.35544 8.55798,16.42695 6.65526,-0.38103 6.29121,-17.27716 -6.39075,0.36681 -0.7992,2.83783 z"
             style="fill:#ee9f00;fill-opacity:1;fill-rule:nonzero;stroke:none"
             id="path2276"
             inkscape:connector-curvature="0" /><path
             d="m 273.089,333.78207 17.19276,-1.80278 -0.4124,-3.35534 -12.24682,-8.66133 11.44193,-1.19996 -0.44653,-3.60557 -18.65464,1.95918 0.42662,3.47761 12.11884,8.57033 -9.86344,1.03504 0.44368,3.58282 z"
             style="fill:#ee9f00;fill-opacity:1;fill-rule:nonzero;stroke:none"
             id="path2280"
             inkscape:connector-curvature="0" /><path
             d="m 306.83516,329.52619 6.01818,-0.93551 -1.80602,-9.921 c -0.18203,-0.98386 -0.52901,-1.88525 -1.04949,-2.70418 -0.51763,-0.81609 -1.22013,-1.49284 -2.1075,-2.03026 -0.88737,-0.53458 -1.77758,-0.86727 -2.66779,-1.00376 -1.24004,-0.18767 -2.67917,-0.15639 -4.32023,0.0995 -0.94994,0.14502 -1.97952,0.36397 -3.08019,0.65116 -1.10068,0.29004 -1.99943,0.6597 -2.69055,1.11466 -0.69397,0.45212 -1.29692,1.04072 -1.80887,1.75729 -0.51194,0.71656 -0.82479,1.42175 -0.93572,2.11841 -0.17918,1.1175 -0.19624,2.08429 -0.0455,2.90322 l 1.80886,9.921 6.01534,-0.93551 -1.85153,-10.15701 c -0.16212,-0.90993 0,-1.66346 0.50057,-2.26628 0.49487,-0.59998 1.26848,-0.9867 2.31512,-1.14878 1.0381,-0.15923 1.89703,-0.0341 2.57962,0.37819 0.67975,0.41231 1.10637,1.07769 1.27417,1.99899 l 1.85153,10.15985 z"
             style="fill:#ee9f00;fill-opacity:1;fill-rule:nonzero;stroke:none"
             id="path2284"
             inkscape:connector-curvature="0" /><path
             d="m 322.01257,319.73059 2.51137,-0.54027 c 0.27019,-0.0569 0.81626,-0.0967 1.63253,-0.11374 0.41524,-0.0199 0.77644,0.0853 1.09783,0.3071 0.32139,0.22464 0.52332,0.51468 0.61433,0.87296 0.13368,0.53173 0.0427,0.98101 -0.28157,1.35067 -0.32138,0.36965 -1.02673,0.67106 -2.11603,0.90423 l -2.6166,0.56586 -0.84186,-3.34681 z m -8.44991,-8.49356 4.14959,16.44401 9.92601,-2.13263 c 1.84299,-0.39809 3.21102,-0.83315 4.1183,-1.3137 0.90443,-0.47771 1.56427,-1.14594 1.97667,-2.00468 0.40955,-0.85589 0.4835,-1.80847 0.21899,-2.85772 -0.22753,-0.90992 -0.65415,-1.64924 -1.27985,-2.21225 -0.62287,-0.56302 -1.38794,-0.96679 -2.28953,-1.20565 -0.57167,-0.1507 -1.32536,-0.21895 -2.25255,-0.20189 0.657,-0.35259 1.12343,-0.66538 1.39647,-0.93835 0.18487,-0.18199 0.42946,-0.53743 0.73378,-1.06916 0.30717,-0.53174 0.49773,-0.93267 0.57736,-1.20281 l 1.68373,-5.3856 -6.73206,1.45019 -1.9141,5.70692 c -0.2389,0.73931 -0.49203,1.23977 -0.75938,1.50137 -0.36405,0.34691 -0.82195,0.58008 -1.36234,0.69666 l -0.52616,0.1109 -1.68372,-6.67372 -5.98121,1.28811 z"
             style="fill:#ee9f00;fill-opacity:1;fill-rule:nonzero;stroke:none"
             id="path2288"
             inkscape:connector-curvature="0" /></g><g
           id="g15759"><path
             d="m 337.53213,448.81333 c -3.06313,0.90424 -6.1291,1.78857 -9.18085,2.72692 -0.4579,0.13934 -0.87315,0.47771 -1.25426,0.7905 -0.38111,0.31279 -0.68259,0.70519 -0.60011,1.26536 0.10239,0.67391 0.69112,0.745 1.12627,0.71372"
             style="fill:#1e2046;fill-opacity:1;fill-rule:evenodd;stroke:none"
             id="path2232"
             inkscape:connector-curvature="0" /><path
             d="m 340.27217,447.97876 c 0.13652,0.15639 0.27304,0.31279 0.4124,0.47487"
             style="fill:#1e2046;fill-opacity:1;fill-rule:evenodd;stroke:none"
             id="path2236"
             inkscape:connector-curvature="0" /><path
             d="m 210.73461,450.71251 0.15358,13.61187 c 3.91068,0.17346 7.83558,0.32416 11.78607,0.40947 l 0.0654,3.85579 c -11.19165,-0.15923 -22.22118,-0.70803 -33.06016,-1.59236 l -0.10239,-4.09465 c 3.7315,0.33838 7.50566,0.60851 11.28266,0.85874 l -0.29863,-13.63747 c 3.37598,0.23317 6.76334,0.42369 10.17345,0.58861"
             style="fill:#ee9f00;fill-opacity:1;fill-rule:nonzero;stroke:none"
             id="path2324"
             inkscape:connector-curvature="0" /><path
             d="m 312.5166,448.05155 c -6.41351,1.11466 -12.9351,2.08998 -19.52495,2.94872 l -0.16496,3.40652 c 5.61147,-0.68244 11.16321,-1.45019 16.64385,-2.3203 l -0.20194,3.18757 c -5.46641,0.91277 -11.00109,1.71748 -16.59833,2.43973 l -0.17065,3.64822 c 6.53012,-0.79334 12.97776,-1.69757 19.34577,-2.74114 l -0.20763,3.16482 c -6.34525,1.09475 -12.78436,2.05302 -19.30026,2.88616 l 0,0.0171 c -0.41524,0.0512 -0.83901,0.0967 -1.25426,0.14787 -0.63424,0.0768 -1.27701,0.16776 -1.92263,0.24454 l 0,-0.0171 c -1.9596,0.2417 -3.92205,0.48908 -5.89872,0.70234 l 0.80204,-17.04967 c 2.72752,-0.27866 5.44367,-0.58576 8.14274,-0.90992 6.93399,-0.83031 13.77981,-1.80563 20.51755,-2.92313 l -0.20762,3.16767 z"
             style="fill:#ee9f00;fill-opacity:1;fill-rule:nonzero;stroke:none"
             id="path2328"
             inkscape:connector-curvature="0" /><path
             d="m 339.44083,452.21928 c -0.5091,0.41231 -1.1405,0.79618 -1.90272,1.1374 -0.75085,0.34407 -1.91979,0.77059 -3.49828,1.25968 -1.48748,0.32416 -2.52559,0.48908 -3.11432,0.5033 -0.59158,0.0199 -1.03527,-0.0683 -1.34243,-0.25307 -0.30148,-0.18768 -0.44369,-0.42084 -0.43515,-0.69951 0.0398,-0.28719 0.23322,-0.60282 0.58304,-0.94404 0.34414,-0.33838 0.81911,-0.65685 1.43629,-0.95542 0.61149,-0.29857 1.25426,-0.53458 1.93116,-0.70235 0.66837,-0.17061 1.63253,-0.42084 2.86688,-0.75068 2.52844,-0.73363 4.3885,-1.31939 5.58872,-1.73454 1.19453,-0.41515 2.12172,-0.75353 2.7844,-1.01513 0.64846,-0.26729 1.53014,-0.73363 2.61375,-1.40185 1.09215,-0.66823 1.95392,-1.29949 2.56541,-1.88809 0.62855,-0.58577 1.13765,-1.25683 1.55574,-2.00183 0.41524,-0.75069 0.5802,-1.42744 0.49203,-2.02742 -0.0967,-0.60283 -0.40955,-1.13172 -0.96131,-1.59237 -0.54323,-0.4578 -1.54152,-0.77628 -3.00625,-0.97532 -1.4761,-0.1962 -2.79578,-0.23033 -3.95618,-0.1109 -1.18032,0.11943 -2.35494,0.31563 -3.53525,0.5687 -1.18601,0.25308 -3.01194,0.72225 -5.49771,1.36773 -2.77302,0.86158 -4.87768,1.53549 -6.32534,2.06154 -1.43344,0.52321 -2.67348,1.04357 -3.7315,1.57246 -1.05232,0.5289 -2.07337,1.16869 -3.04321,1.91937 -0.98123,0.75353 -1.73492,1.42176 -2.27246,2.00183 -0.52901,0.58008 -0.81342,1.17437 -0.87599,1.7971 3.59497,-0.79334 7.18711,-1.63218 10.75934,-2.51366 0.11945,-0.36113 0.40102,-0.76775 0.83901,-1.22556 0.44653,-0.46064 0.91013,-0.84167 1.42207,-1.15162 0.49772,-0.30425 1.07224,-0.56585 1.71785,-0.79049 0.657,-0.22179 1.4562,-0.46065 2.3976,-0.7251 1.23151,-0.17914 2.14163,-0.29003 2.73606,-0.30994 0.5802,-0.0284 1.02673,0.0455 1.33105,0.22464 0.30148,0.18198 0.44937,0.40946 0.41524,0.6796 -0.0341,0.28435 -0.23037,0.60851 -0.60295,0.96963 -0.36121,0.36397 -0.8504,0.69951 -1.45904,1.01229 -0.60296,0.30141 -1.22867,0.53174 -1.87144,0.68529 -5.401,1.54687 -9.16947,2.65868 -11.27413,3.46908 -2.1075,0.80755 -3.77416,1.71463 -4.9886,2.72977 -1.20307,1.00944 -1.84868,1.9478 -1.92263,2.80938 -0.0739,0.86443 0.17065,1.59237 0.71388,2.18097 0.54607,0.59429 1.6183,1.02651 3.23093,1.28811 1.59271,0.2616 3.6803,0.22748 6.23717,-0.12227 2.55972,-0.3526 4.59327,-0.76775 6.08644,-1.23124 1.1348,-0.30141 3.02615,-0.92983 5.67972,-1.91652 2.63651,-0.98954 4.58474,-1.89378 5.839,-2.67574 1.25142,-0.78766 2.3976,-1.65493 3.4414,-2.61319 1.05232,-0.94689 1.73776,-1.9023 2.08759,-2.84919 -3.30488,1.02366 -6.62398,2.00467 -9.95446,2.94303 -0.6769,0.91276 -1.27132,1.5753 -1.78042,1.99614"
             style="fill:#ee9f00;fill-opacity:1;fill-rule:nonzero;stroke:none"
             id="path2332"
             inkscape:connector-curvature="0" /><path
             d="m 266.08079,453.70217 c -4.08701,0.29857 -8.19678,0.55448 -12.3293,0.74784 l -0.0597,3.08237 c 4.07564,-0.15924 8.13421,-0.3725 12.17003,-0.62842 1.89135,-0.18483 2.89248,-0.96679 2.92661,-1.92221 0.0398,-0.94405 -0.85039,-1.41322 -2.70761,-1.27958 m -12.53408,10.75415 c 4.14959,-0.16493 8.25651,-0.37535 12.34068,-0.64264 1.7662,-0.20757 2.67064,-0.85874 2.70761,-1.78003 0.0427,-0.95542 -0.92434,-1.72885 -2.81569,-1.57815 -0.92434,0.0796 -1.91125,0.13365 -2.91807,0.16492 -3.06598,0.20758 -6.14617,0.38388 -9.24627,0.53458 l -0.0683,3.30132 z m 16.75761,-5.93725 c 4.94025,-0.49477 7.33785,0.58861 7.20702,3.37809 -0.13367,2.68143 -2.68201,4.54677 -7.67914,5.14959 -8.35321,0.66823 -16.82018,1.13456 -25.38954,1.38195 l 0.35267,-17.29706 c 8.95616,-0.1962 17.80993,-0.63126 26.52719,-1.28242 4.49657,-0.10237 6.69508,1.2483 6.58416,3.68518 -0.13936,2.78948 -2.66779,4.49275 -7.60236,4.98467"
             style="fill:#ee9f00;fill-opacity:1;fill-rule:nonzero;stroke:none"
             id="path2336"
             inkscape:connector-curvature="0" /><path
             d="m 183.71879,466.47066 c -2.67348,-0.25023 -5.33559,-0.52321 -7.98347,-0.81893 l -0.65984,-10.12289 -13.26502,8.3656 c -4.03581,-0.57154 -8.0375,-1.19143 -12.00506,-1.86534 l -1.35097,-18.31219 c 2.68486,0.48624 5.37541,0.95542 8.09724,1.40185 l 0.73094,12.1958 14.46809,-9.99777 c 3.7258,0.47771 7.47437,0.9213 11.25706,1.3137 l 0.71103,17.84017 z"
             style="fill:#ee9f00;fill-opacity:1;fill-rule:nonzero;stroke:none"
             id="path2340"
             inkscape:connector-curvature="0" /><path
             d="m 121.18806,445.04142 4.83502,8.15802 3.99316,-6.07942 c -2.96927,-0.65969 -5.90726,-1.35635 -8.82818,-2.0786 m 12.93794,-4.17143 c 3.09157,0.67107 6.21727,1.3137 9.36288,1.92222 l -10.55741,16.06581 c -4.32308,-0.90423 -8.59496,-1.86534 -12.81565,-2.88616 l -12.94078,-21.85804 c 2.97496,0.85021 5.97836,1.68336 9.01304,2.48238 l 2.9323,4.95055 c 4.16096,1.02935 8.3788,2.00467 12.63362,2.92881 l 2.372,-3.60557 z"
             style="fill:#ee9f00;fill-opacity:1;fill-rule:nonzero;stroke:none"
             id="path2344"
             inkscape:connector-curvature="0" /><path
             d="m 228.80876,468.63457 0,-17.41649 c 1.71501,0.0142 3.43002,0.037 5.15356,0.037 1.58703,0 3.15983,-0.0171 4.72979,-0.0313 l 0,17.33403 c -2.89533,0.0512 -5.79065,0.0853 -8.71157,0.0853 -0.39249,0 -0.78213,-0.009 -1.17178,-0.009"
             style="fill:#ee9f00;fill-opacity:1;fill-rule:nonzero;stroke:none"
             id="path2348"
             inkscape:connector-curvature="0" /></g><g
           id="g15790"><path
             id="path2380"
             transform="matrix(0.8,0,0,-0.8,0,475.99996)"
             d="m 196.80273,48.107422 c -0.004,0.0527 -0.008,0.1055 -0.0117,0.158203 -6.23895,1.040933 -12.46028,2.19832 -18.66016,3.462891 -1.26209,14.416587 -2.51066,28.838375 -3.76563,43.265625 -6.21419,1.261511 -12.41244,2.629837 -18.59375,4.101562 0.15109,-0.03588 0.30203,-0.07559 0.45313,-0.111328 1.02744,-9.611063 3.06641,-28.822266 3.06641,-28.822266 L 152.5293,57.566406 c -6.15754,1.560375 -12.30149,3.248203 -18.41992,5.025391 -4.62882,38.355363 -9.2563,76.707133 -13.88868,115.062503 0.0123,-0.004 0.0248,-0.006 0.0371,-0.01 l 8.35547,6.58789 c 0,0 12.6895,-3.57256 19.07813,-5.19336 1.76691,-16.65228 3.54308,-33.30473 5.32421,-49.95703 6.2351,-1.58684 18.74814,-4.40704 18.7793,-4.41406 -1.19221,13.6886 -2.38678,27.36157 -3.57617,41.06445 6.3e-4,-1.3e-4 0.001,1.3e-4 0.002,0 l 5.97461,7.11914 c 0,0 12.87496,-2.50896 19.3418,-3.58594 2.60949,-36.02723 7.81055,-108.07812 7.81055,-108.07812 l -4.54493,-13.080078 z m -24.03125,65.335938 c 6.3e-4,-1.3e-4 0.001,1.3e-4 0.002,0 -0.0345,0.39764 -0.069,0.79383 -0.10352,1.19141 0.0472,-0.54774 0.0559,-0.66343 0.10156,-1.19141 z m -0.99609,0.20898 c -6.40451,1.32131 -12.79794,2.74476 -19.16797,4.2793 6.36878,-1.53522 12.76174,-2.96023 19.16797,-4.2793 z m -25.85937,5.9336 c -1.87002,17.53377 -3.7351,35.04594 -5.60157,52.57617 -0.005,10e-4 -0.0104,0.003 -0.0156,0.004 1.86558,-17.52535 3.74807,-35.05829 5.61719,-52.58008 z"
             style="fill:#3dc0ea;fill-opacity:1;fill-rule:nonzero;stroke:none"
             inkscape:connector-curvature="0" /><path
             id="path2388"
             transform="matrix(0.8,0,0,-0.8,0,475.99996)"
             d="m 267.70117,41.058594 c -14.02156,0.508275 -28.02131,1.557328 -41.98242,3.142578 -3.80758,4.044887 -7.63659,8.128153 -11.51172,12.24414 -1.98377,34.207401 -3.95923,68.398068 -5.93945,102.605468 l 3.97461,7.52344 c 0,0 12.99015,-1.62032 19.49609,-2.26367 0.71815,-16.46747 1.42923,-32.93488 2.13672,-49.40235 5.3031,-0.52238 16.90638,-1.35727 24.24805,-1.86914 -0.30897,13.8341 -0.61394,27.66435 -0.92383,41.50391 6.85861,-0.35156 14.05554,-0.585 20.92187,-0.69531 -0.0347,8.6e-4 -14.05078,0.34936 -20.91797,0.69726 l 1.53321,7.74805 19.41406,-0.66211 -0.0117,-7.7832 c 0,0 0.002,0 0.002,0 0.24887,-34.07589 -0.2629,-68.138604 -0.0176,-102.210941 -3.65115,-3.557938 -6.84183,-7.084163 -10.42188,-10.578125 z m -8.57422,26.857422 c -0.12238,5.46732 -0.24091,10.935646 -0.36914,16.404296 -7.86796,0.404519 -15.73083,0.977852 -23.58789,1.703126 0.21671,-5.573391 0.47479,-12.485793 0.65235,-16.394532 6.42004,-0.632618 19.09068,-1.449789 23.30468,-1.71289 z m -0.77148,34.726564 c -4.55949,0.23281 -9.11895,0.51753 -13.67578,0.85742 4.55682,-0.34033 9.11629,-0.62639 13.67578,-0.85742 z"
             style="fill:#3dc0ea;fill-opacity:1;fill-rule:nonzero;stroke:none"
             inkscape:connector-curvature="0" /><path
             id="path2376"
             transform="matrix(0.8,0,0,-0.8,0,475.99996)"
             d="m 297.28711,40.769531 c 0.27374,37.701363 -0.26989,75.381919 0.008,113.076169 6.87924,0.11375 14.07744,0.34378 20.95313,0.69922 -0.31808,-13.82511 -0.62237,-27.65039 -0.92774,-41.47461 8.09802,0.43362 16.18895,1.04763 24.26563,1.84375 0.71102,16.47101 1.42338,32.93169 2.13086,49.40625 6.50595,0.63624 19.49609,2.25977 19.49609,2.25977 l 3.96875,-7.51953 c 0.002,2.5e-4 0.004,-2.6e-4 0.006,0 -0.93501,-15.97695 -1.86897,-31.93746 -2.79688,-47.91797 -4.05999,-4.88373 -8.08707,-9.72376 -12.09374,-14.529299 0.006,-0.0065 0.0116,-0.01299 0.0176,-0.01953 1.30514,1.564414 3.34467,4.011079 3.06446,3.677729 1.25141,-1.39687 3.74609,-4.164057 3.74609,-4.164057 l 3.75195,-11.230469 c -0.54748,-9.48665 -1.1036,-18.945887 -1.6582,-28.421875 -3.86446,-4.119525 -7.70699,-8.203503 -11.50391,-12.251953 -17.59093,-1.997563 -34.76214,-3.138581 -52.42773,-3.433594 z m 20.96094,113.775389 c -6.86858,-0.34832 -20.95703,-0.69726 -20.95703,-0.69726 l 0.0117,7.78906 19.42774,0.65625 1.51758,-7.74805 z m -2.22266,-99.343748 c 2.19709,0.112853 4.39392,0.236934 6.58984,0.375 -2.19555,-0.137525 -4.3934,-0.26111 -6.58984,-0.373047 -1e-5,-6.5e-4 2e-5,-0.0013 0,-0.002 z m 26.3418,1.972656 c 6.4e-4,6.4e-5 0.001,-6.4e-5 0.002,0 0.42308,9.717688 0.82463,19.448684 1.24414,29.169922 -8.96611,-0.8886 -17.94559,-1.559409 -26.94726,-2.021484 -0.1219,-5.456372 -0.24043,-10.912418 -0.35938,-16.369141 8.09404,0.55089 17.92142,1.300587 23.3418,1.830078 0.1742,4.190613 0.44734,10.918769 0.68554,16.253906 1.09144,0.103125 2.18786,0.200003 3.2793,0.306641 -0.41948,-9.7206 -0.82306,-19.452882 -1.24609,-29.169922 z m -25.28125,45.453122 c 1.56358,0.0804 3.12537,0.17499 4.6875,0.26758 -1.5621,-0.0919 -3.12514,-0.18511 -4.6875,-0.26367 -3e-5,-0.001 3e-5,-0.003 0,-0.004 z m 27.33398,2.04688 c 0,0 0.002,0 0.002,0 0.37149,8.66706 0.74524,17.33188 1.11718,25.99805 -0.37372,-8.66573 -0.74586,-17.33099 -1.11914,-25.99805 z m 3.3418,52.11719 c 4.19994,0.42226 8.39522,0.90146 12.58789,1.41406 -4.19139,-0.50953 -8.3871,-0.98679 -12.58789,-1.41406 z"
             style="fill:#3dc0ea;fill-opacity:1;fill-rule:nonzero;stroke:none"
             inkscape:connector-curvature="0" /><path
             id="path2416"
             transform="matrix(0.8,0,0,-0.8,0,475.99996)"
             d="m 111.52344,32.972656 c -12.997672,4.553163 -25.857958,9.628056 -38.560549,15.222656 -3.949784,5.217838 -7.917359,10.489279 -11.90625,15.806641 -3.124987,17.533788 -6.239546,35.067075 -9.357422,52.593747 -8.701101,4.05323 -17.327545,8.33017 -25.869141,12.84766 -0.0057,-0.002 -0.01188,-0.002 -0.01758,-0.004 l 0.01172,0.008 c -0.0103,0.005 -0.02095,0.0102 -0.03125,0.0156 0.02957,0.008 0.06027,0.0174 0.08984,0.0254 l 13.021485,8.96875 c 0,0 13.881183,3.84284 21.123047,6.00391 9.885032,-4.60561 19.883452,-8.8807 29.974609,-12.85742 -2.118722,14.3674 -4.235879,28.73586 -6.351562,43.11132 -8.937675,3.27004 -17.810703,6.77466 -26.613282,10.4961 0.483502,-2.9217 0.965718,-5.84783 1.449219,-8.76953 -5.553161,-2.07933 -11.017922,-4.07603 -16.361328,-5.98829 -1.649595,9.23784 -3.292009,18.46458 -4.923828,27.69532 2.972115,2.12196 6.002209,4.25796 9.070312,6.42968 0.01308,-0.006 0.02599,-0.0118 0.03906,-0.0176 l 12.048828,5.25 c 0,0 27.304245,-11.39187 41.183594,-16.25782 4.127538,-4.84462 8.237028,-9.63149 12.318358,-14.37304 2.7908,-20.84292 8.36523,-62.51953 8.36523,-62.51953 0,0 -8.57516,-9.80652 -8.84179,-10.14063 -2.94723,21.93766 -5.84699,43.84359 -8.78711,65.78125 -0.004,0.005 -0.008,0.009 -0.0117,0.0137 2.93578,-21.93536 5.8666,-43.86665 8.79883,-65.79492 -0.48706,-0.58647 -3.45551,-4.14341 -8.72071,-10.623046 -6.733042,2.354644 -13.424208,4.856756 -20.082026,7.478516 0.204659,-0.0805 0.408563,-0.16388 0.613281,-0.24414 1.720699,-10.385913 3.437856,-20.764479 5.16211,-31.150391 5.709589,-2.409875 11.453682,-4.714256 17.234375,-6.917969 l 4.53711,6.107422 c 4.98078,2.4312 10.04778,4.932841 15.19921,7.509766 1.09854,-8.157313 3.28126,-24.490235 3.28126,-24.490235 l -8.38086,-13.494141 0,-0.002 c -7e-4,-6.13e-4 -0.001,-0.0013 -0.002,-0.002 -2.94296,-2.586995 -5.84545,-5.192186 -8.70312,-7.71875 z m -10.75196,25.541016 c 1.75716,0.855126 3.54155,1.734373 5.32032,2.609375 -1.77832,-0.874251 -3.5624,-1.752506 -5.32032,-2.607422 1e-4,-6.38e-4 -9e-5,-0.0013 0,-0.002 z M 76.804688,105.67773 c -2.371113,0.9647 -4.739858,1.94008 -7.101563,2.93946 1.05e-4,-6.4e-4 -1.05e-4,-10e-4 0,-0.002 2.360856,-0.99925 4.728425,-1.97612 7.101563,-2.9375 z"
             style="fill:#3dc0ea;fill-opacity:1;fill-rule:nonzero;stroke:none"
             inkscape:connector-curvature="0" /><path
             id="path2408"
             transform="matrix(0.8,0,0,-0.8,0,475.99996)"
             d="m 463.87305,32.974609 c -2.8651,2.537504 -5.75843,5.07291 -8.6875,7.660157 0,0 -0.002,0 -0.002,0 0,0 0,0.002 0,0.002 l -8.36328,13.439453 c 0,0 5.00519,37.36467 7.49024,56.042971 3.90001,4.70245 7.82456,9.45354 11.76367,14.25195 10.66194,3.74278 21.23282,7.81964 31.69922,12.25196 2.38196,14.35261 4.74855,28.70864 7.12695,43.06836 -0.20954,-0.0888 8.7708,3.50364 13.45703,5.48828 0.002,0.0111 0.004,0.0221 0.006,0.0332 -8.8097,-3.71789 -17.68076,-7.2193 -26.61133,-10.5 -0.42662,-2.89682 -0.85622,-5.80044 -1.27929,-8.69727 -7.13811,-7.09388 -14.24194,-14.12433 -21.3125,-20.9375 -1.8e-4,-0.001 1.7e-4,-0.003 0,-0.004 l -0.002,0.002 -9.07226,8.16016 c 0,0 2.30356,17.21355 3.45898,25.82226 4.08489,4.74512 8.18496,9.53909 12.3125,14.37305 13.87935,4.87306 41.34961,16.42774 41.34961,16.42774 l 11.98633,-5.26172 c 5.5e-4,2.4e-4 0.001,-2.4e-4 0.002,0 3.07165,-2.17173 6.02574,-4.32585 9.01563,-6.4336 -3.41749,-19.14292 -6.81521,-38.27128 -10.21875,-57.40625 l 8.52343,-2.25 13.07813,-9.02734 c -3.64582,0.94014 -7.34776,1.92138 -11.10156,2.94726 3.75425,-1.02588 7.45574,-2.00908 11.10156,-2.94921 -22.4544,-11.88587 -45.53463,-22.14695 -69.04492,-30.773445 -2.39974,-16.29685 -4.79948,-32.607091 -7.19922,-48.90039 0,0 0.002,0 0.002,0 2.4061,16.28823 2.58399,17.511718 2.58399,17.511718 0,0 7.43811,2.988097 11.14257,4.544922 0.45863,2.779525 0.92421,5.559963 1.38282,8.335938 6.29975,6.877725 18.99804,21.027347 18.99804,21.027347 l 11.55664,-10.968754 c 0,0 0,-0.002 0,-0.002 -1.54993,-8.750255 -3.11783,-17.489069 -4.68554,-26.25 -3.97466,-5.3138 -7.94865,-10.581347 -11.89844,-15.802734 -12.69547,-5.5946 -25.56448,-10.666288 -38.55859,-15.226563 z m -4.73633,37.152344 c 1.31941,9.831428 2.63949,19.664313 3.95312,29.492188 4.10622,4.958359 8.22027,9.955789 12.36914,15.013669 0,0 -0.002,0 -0.002,0 -1.45761,-1.7843 -9.79165,-11.88581 -12.36914,-15.013669 -1.32074,-9.82965 -2.63487,-19.660316 -3.95117,-29.492188 z m 67.94336,65.511717 c 0,0 0.002,0 0.002,0 0.30575,1.70966 0.60797,3.41269 0.91016,5.11524 -0.3033,-1.70513 -0.60875,-3.40998 -0.91211,-5.11524 z m -41.31446,51.82617 c 5.48207,1.92204 10.95244,3.92676 16.40235,6.01368 3.63327,1.39127 7.25764,2.81884 10.86914,4.2832 -3.61152,-1.46423 -7.23585,-2.89206 -10.86914,-4.2832 -5.44994,-2.08671 -10.92029,-4.09102 -16.40235,-6.01172 -3.2e-4,-3.8e-4 3.3e-4,-0.002 0,-0.002 z"
             style="fill:#3dc0ea;fill-opacity:1;fill-rule:nonzero;stroke:none"
             inkscape:connector-curvature="0" /><path
             transform="matrix(0.8,0,0,-0.8,0,475.99996)"
             id="path2400"
             d="m 378.5957,48.251953 c 5e-5,6.48e-4 -4e-5,0.0013 0,0.002 2.74805,37.91688 5.48563,75.844837 8.22657,113.761717 -6.4e-4,-1e-4 -10e-4,1.1e-4 -0.002,0 C 384.0828,124.0975 381.3438,86.175678 378.59566,48.253953 l -4.53515,13.054688 c 0,0 5.21206,72.058699 7.81445,108.085939 6.46684,1.08409 19.36133,3.58985 19.36133,3.58985 l 5.95117,-7.1836 c -3.38274,-0.69133 -6.77279,-1.35045 -10.16797,-1.98047 3.39474,0.63002 6.78523,1.28897 10.16797,1.97852 -1.18452,-13.71393 -2.37992,-27.42467 -3.56836,-41.13672 6.29201,1.36832 12.55818,2.83517 18.79688,4.42383 1.78112,16.64873 3.55996,33.30829 5.33398,49.95703 6.3744,1.61725 19.07031,5.19726 19.07031,5.19726 l 8.36524,-6.58984 c -3.32941,-0.97035 -6.67191,-1.91208 -10.01953,-2.82422 3.3454,0.91215 6.68478,1.85192 10.01953,2.82227 -1.9589,-16.19378 -3.91841,-32.37618 -5.88086,-48.56641 -4.24487,-5.5164 -8.47909,-10.98225 -12.67774,-16.40625 3.2032,-3.42997 6.35674,-6.82521 9.47461,-10.20898 -1.1661,-9.600406 -2.31402,-19.206959 -3.47656,-28.814459 -4.01022,-4.727338 -7.99923,-9.401485 -11.9668,-14.029297 -2.5846,-0.703763 -5.16875,-1.315794 -7.76758,-1.980469 1.5465,14.494788 3.08436,28.918231 4.63086,43.402345 -1.54636,-14.486376 -3.08645,-28.90886 -4.63281,-43.402345 l -6.75195,12.673828 c 0,0 2.02662,19.044449 3.05859,28.69336 -6.03871,-1.434554 -12.09085,-2.776994 -18.15625,-4.013672 -1.25852,-14.420138 -2.5119,-28.843878 -3.75976,-43.267578 -6.22153,-1.25825 -12.43362,-2.438675 -18.6836,-3.476563 z m 24.05078,65.197267 c 0.74845,0.15309 1.49601,0.31665 2.24414,0.47266 -0.74813,-0.15531 -1.49569,-0.3185 -2.24414,-0.47071 -5e-5,-6.4e-4 6e-5,-0.001 0,-0.002 z m 24.07227,5.45312 c 0.92681,0.22976 1.85563,0.45133 2.78125,0.68555 1.87001,17.53734 3.74291,35.06123 5.60938,52.58789 -1.87003,-17.52667 -3.73776,-35.05571 -5.61133,-52.58594 -0.92497,-0.23479 -1.85314,-0.45725 -2.7793,-0.6875 z"
             style="fill:#3dc0ea;fill-opacity:1;fill-rule:nonzero;stroke:none"
             inkscape:connector-curvature="0" /></g><g
           id="g15782"><path
             d="m 185.45286,406.93472 c 0.33276,7.77415 0.67121,15.54546 1.00113,23.31961 7.01647,0.69097 14.04716,1.21702 21.07784,1.5753 -0.17349,-7.76562 -0.34414,-15.52271 -0.52616,-23.28548 -7.18996,-0.36966 -14.37423,-0.90424 -21.55281,-1.60943 m 28.70864,36.21776 c -11.21725,-0.40662 -22.41743,-1.24546 -33.58632,-2.51366 -3.04606,-3.23591 -6.10919,-6.5031 -9.20929,-9.79589 -1.58702,-27.36592 -3.16836,-54.71762 -4.75254,-82.08354 5.46073,0.72794 10.93568,1.36489 16.41631,1.908 0.60011,13.86779 1.19454,27.71851 1.78612,41.58346 7.27812,0.72225 14.57331,1.26536 21.8685,1.63501 -0.31285,-13.84219 -0.61433,-27.67586 -0.92434,-41.5209 5.49201,0.28151 11.25422,0.46918 16.75192,0.55733 0.19909,27.26071 -0.21046,54.51004 -0.0142,81.76791 -2.92092,2.84635 -5.4721,5.66711 -8.33614,8.46228"
             style="fill:#ffffff;fill-opacity:1;fill-rule:nonzero;stroke:none"
             id="path2352"
             inkscape:connector-curvature="0" /><path
             d="m 274.89104,406.92476 c -7.17289,0.71088 -14.35716,1.2483 -21.5585,1.61796 -0.17349,7.76562 -0.33845,15.53408 -0.51194,23.29686 7.03069,-0.36113 14.05284,-0.88149 21.07499,-1.57815 0.33846,-7.77415 0.65984,-15.55968 0.99545,-23.33667 m 14.08413,23.91106 c -3.09157,3.29562 -6.16607,6.56281 -9.2036,9.80157 -14.07275,1.59805 -27.8099,2.51082 -41.94237,2.74683 0.21899,-30.16109 -0.21616,-60.30512 0.006,-90.46052 5.50339,-0.091 11.26275,-0.27582 16.7633,-0.56017 -0.31854,13.84504 -0.62571,27.69292 -0.93003,41.53512 7.30088,-0.37534 14.579,-0.91561 21.86851,-1.63786 0.59442,-13.86779 1.18884,-27.73557 1.78611,-41.59768 5.48348,-0.54026 10.96127,-1.18289 16.42769,-1.91083 -0.74801,12.78156 -1.49601,25.54892 -2.23833,38.33333 -3.248,3.90698 -6.47039,7.77983 -9.67573,11.62426 2.85551,3.14492 5.69111,6.28984 8.46413,9.38926 -0.43799,7.58932 -0.88168,15.1559 -1.32536,22.73669"
             style="fill:#ffffff;fill-opacity:1;fill-rule:nonzero;stroke:none"
             id="path2356"
             inkscape:connector-curvature="0" /><path
             d="m 142.50423,434.61655 c -1.00967,-11.53327 -2.00796,-23.06938 -3.01193,-34.61118 -7.08757,-1.43881 -14.15239,-3.04255 -21.18308,-4.82827 1.23436,11.59013 2.48009,23.18027 3.71444,34.77041 -4.92603,-1.2483 -9.84069,-2.59897 -14.73544,-4.02072 -3.70305,-30.68429 -7.406107,-61.36574 -11.112007,-92.05003 5.335587,1.54971 10.693927,3.00843 16.060797,4.37047 1.49317,14.02702 3.00056,28.05973 4.49657,42.08391 7.12738,1.80563 14.29459,3.44633 21.48455,4.91358 -1.2116,-13.96162 -2.43173,-27.87206 -3.64333,-41.83084 5.41806,1.10613 10.85319,2.10988 16.29401,3.01981 2.18714,30.34307 4.38281,60.6179 6.57279,90.95528 -4.9943,-0.83315 -9.97436,-1.76013 -14.93737,-2.77242"
             style="fill:#ffffff;fill-opacity:1;fill-rule:nonzero;stroke:none"
             id="path2360"
             inkscape:connector-curvature="0" /><path
             d="m 93.41599,422.86177 c 0.91581,6.8756 1.84584,13.71139 2.767338,20.58415 -2.354939,2.07008 -4.678593,4.15437 -6.965272,6.1761 -10.398136,-3.64253 -20.685351,-7.70306 -30.847424,-12.17874 -3.159827,-4.17427 -6.333875,-8.39119 -9.524988,-12.64508 -2.499989,-14.02703 -4.991446,-28.05405 -7.485747,-42.07539 -6.97096,-3.24728 -13.882194,-6.67371 -20.725168,-10.29349 5.765049,-1.5554 11.692214,-3.23876 17.784339,-5.06145 11.584137,5.39414 23.34461,10.2736 35.24729,14.64407 -2.25255,-15.25542 -4.499412,-30.51653 -6.746274,-45.78332 -7.15014,-2.61603 -14.249086,-5.41973 -21.291149,-8.39688 0.386801,2.33736 0.773603,4.67757 1.160404,7.01493 -4.442529,1.66346 -8.813956,3.26151 -13.088681,4.79131 -1.319676,-7.39027 -2.633664,-14.77202 -3.939119,-22.15661 2.377692,-1.69757 4.80089,-3.40652 7.255373,-5.1439 11.42771,5.03016 22.991939,9.59399 34.689841,13.68864 3.464149,4.08044 6.925454,8.11537 10.361162,12.10766 2.349251,17.55297 4.692813,35.1031 7.03922,52.65039 -0.389646,0.46918 -2.764494,3.31553 -6.976649,8.49924 -8.870838,-3.10226 -17.659197,-6.49172 -26.36792,-10.17691 2.170071,13.13416 4.342985,26.26548 6.513056,39.3968 6.407822,2.71271 12.866839,5.26049 19.365674,7.65188 -0.341296,-2.32599 -0.688279,-4.64345 -1.023887,-6.9666 4.189403,-2.03879 8.455596,-4.14867 12.798581,-6.3268"
             style="fill:#ffffff;fill-opacity:1;fill-rule:nonzero;stroke:none"
             id="path2364"
             inkscape:connector-curvature="0" /><path
             d="m 384.43978,397.03561 c -1.91979,13.03748 -3.83957,26.08634 -5.75936,39.12098 6.50452,-2.3857 12.95785,-4.93349 19.36852,-7.64335 0.38964,-2.34021 0.7736,-4.67757 1.1604,-7.01493 5.31283,-5.78938 10.64273,-11.69251 16.00392,-17.70368 -1.24004,7.00071 -2.49431,13.9929 -3.74857,21.00215 -3.17973,4.25104 -6.35947,8.46512 -9.5193,12.64223 -10.15638,4.47568 -20.45213,8.53337 -30.84742,12.18159 -2.29237,-2.03026 -4.60749,-4.05769 -6.95105,-6.12776 2.10466,-15.73028 4.22353,-31.46341 6.32534,-47.18801 3.28497,-3.96669 6.57563,-7.96467 9.89473,-12.01098 8.97322,-3.14492 17.88104,-6.58272 26.69499,-10.31056 2.5455,-15.38337 5.07677,-30.77244 7.62796,-46.15297 -7.04776,2.97431 -14.14386,5.77516 -21.28831,8.39972 -0.3413,2.31746 -0.68543,4.6406 -1.02389,6.95806 -5.71101,5.67564 -11.39358,11.3001 -17.05055,16.75111 0.98407,-7.25095 1.94538,-14.55876 2.91808,-21.80971 3.43855,-3.99797 6.89417,-8.02722 10.36685,-12.10197 11.69506,-4.10034 23.32754,-8.66985 34.74388,-13.7057 2.45732,1.73738 4.8208,3.46054 7.21271,5.14674 -2.9778,16.68002 -5.93854,33.34582 -8.90497,50.02015 6.16323,1.78572 12.17856,3.42358 18.01187,4.9278 -17.96352,9.50869 -36.4276,17.7179 -55.23583,24.61909"
             style="fill:#ffffff;fill-opacity:1;fill-rule:nonzero;stroke:none"
             id="path2368"
             inkscape:connector-curvature="0" /><path
             d="m 354.09975,417.07865 c -3.20818,3.78187 -6.39929,7.52108 -9.57334,11.22333 -2.06768,0.56301 -4.13536,1.05209 -6.21442,1.58383 1.2372,-11.59583 2.4687,-23.13478 3.7059,-34.72207 -7.03922,1.78287 -14.10119,3.39514 -21.18592,4.83965 -1.00682,11.53611 -2.0108,23.07506 -3.00909,34.61402 -4.97722,1.0066 -9.94591,1.95064 -14.94589,2.78095 2.19851,-30.33454 4.38849,-60.67762 6.58131,-91.01216 5.44366,-0.91561 10.87879,-1.92221 16.29117,-3.02549 -1.20591,13.96162 -2.42888,27.91756 -3.63195,41.87918 7.18711,-1.47009 14.35716,-3.10795 21.48171,-4.91073 1.49601,-14.02987 2.99486,-28.04837 4.48803,-42.0697 5.37541,-1.36773 10.72521,-2.82645 16.0608,-4.379 -1.56712,12.95502 -3.13423,25.90151 -4.70419,38.85369 -3.39589,4.41312 -6.78325,8.78643 -10.14217,13.12563 2.56256,2.74398 5.08531,5.45953 7.57961,8.16655 -0.93288,7.68032 -1.85153,15.36632 -2.78156,23.05232"
             style="fill:#ffffff;fill-opacity:1;fill-rule:nonzero;stroke:none"
             id="path2372"
             inkscape:connector-curvature="0" /></g></g></g></g></svg>
